P2
5 4
255
0 0 255 240 0
0 255 0 160 80
255 0 0 80 160
0 0 0 0 240
